<svg width="111" height="111" viewBox="0 0 111 111" fill="none" xmlns="http://www.w3.org/2000/svg">
<rect width="111" height="111" rx="12" fill="url(#paint0_linear_1_11)"/>
<circle cx="55.5" cy="55.5" r="28.5" stroke="#737373" stroke-width="4"/>
<path d="M92 22C92 20.8954 91.1046 20 90 20L72 20C70.8954 20 70 20.8954 70 22C70 23.1046 70.8954 24 72 24L88 24L88 40C88 41.1046 88.8954 42 90 42C91.1046 42 92 41.1046 92 40L92 22ZM23.4142 91.4142L91.4142 23.4142L88.5858 20.5858L20.5858 88.5858L23.4142 91.4142Z" fill="#737373"/>
<path d="M19.8388 89.8285C19.8336 90.9331 20.7247 91.8328 21.8293 91.838L39.8291 91.9236C40.9337 91.9288 41.8333 91.0376 41.8386 89.9331C41.8438 88.8285 40.9527 87.9289 39.8481 87.9236L23.8483 87.8476L23.9243 71.8477C23.9296 70.7432 23.0384 69.8435 21.9339 69.8383C20.8293 69.833 19.9296 70.7242 19.9244 71.8287L19.8388 89.8285ZM88.7537 20.741L20.4313 88.4171L23.2463 91.259L91.5687 23.5829L88.7537 20.741Z" fill="#737373"/>
<path d="M90.7374 91.289C91.8418 91.2661 92.7185 90.3523 92.6956 89.248L92.3233 71.2519C92.3004 70.1475 91.3867 69.2708 90.2823 69.2937C89.178 69.3165 88.3013 70.2303 88.3241 71.3346L88.6551 87.3312L72.6585 87.6622C71.5542 87.685 70.6775 88.5988 70.7003 89.7031C70.7232 90.8075 71.637 91.6842 72.7413 91.6613L90.7374 91.289ZM19.9193 24.1538L89.3114 90.7325L92.0807 87.8462L22.6886 21.2675L19.9193 24.1538Z" fill="#737373"/>
<path d="M21.4307 20.5464C20.3262 20.564 19.4452 21.4736 19.4628 22.578L19.7496 40.5757C19.7672 41.6801 20.6768 42.5612 21.7812 42.5436C22.8857 42.526 23.7667 41.6164 23.7491 40.512L23.4941 24.514L39.4921 24.259C40.5965 24.2414 41.4776 23.3318 41.46 22.2274C41.4424 21.123 40.5328 20.2419 39.4284 20.2595L21.4307 20.5464ZM91.929 88.0173L22.854 21.1095L20.071 23.9827L89.146 90.8905L91.929 88.0173Z" fill="#737373"/>
<defs>
<linearGradient id="paint0_linear_1_11" x1="55.5" y1="0" x2="55.5" y2="111" gradientUnits="userSpaceOnUse">
<stop stop-color="#737373"/>
<stop offset="0.32" stop-color="#D9D9D9"/>
<stop offset="0.615" stop-color="#D9D9D9"/>
<stop offset="1" stop-color="#737373"/>
</linearGradient>
</defs>
</svg>
