<svg width="34" height="34" viewBox="0 0 34 34" fill="none" xmlns="http://www.w3.org/2000/svg">
<path d="M23.9062 0.53125H10.0938C9.53039 0.531988 8.99032 0.756108 8.59196 1.15446C8.19361 1.55282 7.96949 2.09289 7.96875 2.65625V31.3438C7.96949 31.9071 8.19361 32.4472 8.59196 32.8455C8.99032 33.2439 9.53039 33.468 10.0938 33.4688H23.9062C24.4696 33.468 25.0097 33.2439 25.408 32.8455C25.8064 32.4472 26.0305 31.9071 26.0312 31.3438V2.65625C26.0305 2.09289 25.8064 1.55282 25.408 1.15446C25.0097 0.756108 24.4696 0.531988 23.9062 0.53125ZM19.4862 1.59375L19.1874 2.65625H14.7588L14.4932 1.59375H19.4862ZM24.9688 31.3438C24.9684 31.6254 24.8563 31.8955 24.6571 32.0946C24.458 32.2938 24.1879 32.4059 23.9062 32.4062H10.0938C9.81207 32.4059 9.54203 32.2938 9.34286 32.0946C9.14368 31.8955 9.03162 31.6254 9.03125 31.3438V2.65625C9.03162 2.37457 9.14368 2.10453 9.34286 1.90536C9.54203 1.70618 9.81207 1.59412 10.0938 1.59375H13.3975L13.8284 3.31633C13.8572 3.43126 13.9235 3.53329 14.0169 3.6062C14.1102 3.67912 14.2253 3.71873 14.3438 3.71875H19.5898C19.7056 3.71875 19.8182 3.68093 19.9105 3.61104C20.0028 3.54116 20.0698 3.44303 20.1012 3.3316L20.5899 1.59375H23.9062C24.1879 1.59412 24.458 1.70618 24.6571 1.90536C24.8563 2.10453 24.9684 2.37457 24.9688 2.65625V31.3438Z" fill="#BB3800"/>
<path d="M14.3438 30.2812H10.625C10.4841 30.2812 10.349 30.3372 10.2493 30.4368C10.1497 30.5365 10.0938 30.6716 10.0938 30.8125C10.0938 30.9534 10.1497 31.0885 10.2493 31.1882C10.349 31.2878 10.4841 31.3438 10.625 31.3438H14.3438C14.4846 31.3438 14.6198 31.2878 14.7194 31.1882C14.819 31.0885 14.875 30.9534 14.875 30.8125C14.875 30.6716 14.819 30.5365 14.7194 30.4368C14.6198 30.3372 14.4846 30.2812 14.3438 30.2812Z" fill="#BB3800"/>
<path d="M16.4688 30.2812H15.9375C15.7966 30.2812 15.6615 30.3372 15.5618 30.4368C15.4622 30.5365 15.4062 30.6716 15.4062 30.8125C15.4062 30.9534 15.4622 31.0885 15.5618 31.1882C15.6615 31.2878 15.7966 31.3438 15.9375 31.3438H16.4688C16.6096 31.3438 16.7448 31.2878 16.8444 31.1882C16.944 31.0885 17 30.9534 17 30.8125C17 30.6716 16.944 30.5365 16.8444 30.4368C16.7448 30.3372 16.6096 30.2812 16.4688 30.2812Z" fill="#BB3800"/>
<path d="M18.8671 13.8882C18.8073 13.8523 18.741 13.8286 18.672 13.8183C18.6029 13.808 18.5326 13.8114 18.4649 13.8284C18.3972 13.8453 18.3335 13.8754 18.2775 13.9169C18.2214 13.9584 18.1741 14.0106 18.1382 14.0704L14.9507 19.3829C14.8782 19.5038 14.8567 19.6484 14.8909 19.7851C14.925 19.9218 15.0121 20.0393 15.1329 20.1118C15.2537 20.1843 15.3984 20.2058 15.5351 20.1717C15.6718 20.1375 15.7893 20.0504 15.8618 19.9296L19.0493 14.6171C19.0852 14.5573 19.109 14.491 19.1192 14.4219C19.1295 14.3529 19.1261 14.2826 19.1092 14.2149C19.0922 14.1472 19.0621 14.0835 19.0206 14.0275C18.9791 13.9714 18.9269 13.9241 18.8671 13.8882Z" fill="#BB3800"/>
<path d="M20.6023 14.0117C20.5587 13.9572 20.5048 13.9119 20.4437 13.8782C20.3826 13.8446 20.3154 13.8233 20.246 13.8156C20.106 13.8001 19.9655 13.8408 19.8555 13.9289C19.7454 14.017 19.6749 14.1451 19.6594 14.2852C19.6438 14.4252 19.6846 14.5657 19.7726 14.6758L21.632 17L19.7726 19.3242C19.6846 19.4342 19.6438 19.5747 19.6594 19.7148C19.6749 19.8549 19.7454 19.983 19.8555 20.0711C19.9655 20.1591 20.106 20.1999 20.246 20.1844C20.3861 20.1688 20.5143 20.0983 20.6023 19.9883L22.7273 17.332C22.8028 17.2378 22.8439 17.1207 22.8439 17C22.8439 16.8793 22.8028 16.7622 22.7273 16.668L20.6023 14.0117Z" fill="#BB3800"/>
<path d="M13.3977 19.9883C13.4857 20.0983 13.6139 20.1688 13.754 20.1843C13.894 20.1999 14.0345 20.1591 14.1445 20.0711C14.2546 19.983 14.3251 19.8549 14.3406 19.7148C14.3562 19.5747 14.3154 19.4342 14.2273 19.3242L12.368 17L14.2273 14.6758C14.271 14.6213 14.3034 14.5588 14.3228 14.4917C14.3423 14.4247 14.3483 14.3545 14.3406 14.2852C14.3329 14.2158 14.3117 14.1487 14.278 14.0875C14.2444 14.0264 14.199 13.9725 14.1445 13.9289C14.0901 13.8853 14.0275 13.8528 13.9605 13.8334C13.8935 13.814 13.8233 13.8079 13.754 13.8156C13.6846 13.8233 13.6174 13.8446 13.5563 13.8782C13.4952 13.9119 13.4413 13.9572 13.3977 14.0117L11.2727 16.668C11.1972 16.7622 11.1561 16.8793 11.1561 17C11.1561 17.1207 11.1972 17.2378 11.2727 17.332L13.3977 19.9883Z" fill="#BB3800"/>
</svg>
