<svg width="26" height="26" viewBox="0 0 26 26" fill="none" xmlns="http://www.w3.org/2000/svg">
<g clip-path="url(#clip0_1_113)">
<path d="M13.3981 5.19592C7.66243 5.19592 2.99609 9.86227 2.99609 15.598C2.99609 21.3337 7.66243 25.9999 13.3981 25.9999C19.1337 25.9999 23.8001 21.3336 23.8001 15.598C23.8001 9.86232 19.1338 5.19592 13.3981 5.19592ZM13.3981 24.4765C8.50246 24.4765 4.51953 20.4936 4.51953 15.598C4.51953 10.7023 8.50246 6.71941 13.3981 6.71941C18.2937 6.71941 22.2766 10.7023 22.2766 15.598C22.2766 20.4936 18.2937 24.4765 13.3981 24.4765Z" fill="white"/>
<path d="M17.9408 17.5324C17.6215 17.2586 17.1406 17.2953 16.8667 17.6147C15.9969 18.6287 14.7327 19.2103 13.3981 19.2103C12.0636 19.2103 10.7993 18.6288 9.92957 17.6148C9.65565 17.2954 9.17481 17.2587 8.85549 17.5325C8.53618 17.8065 8.49937 18.2874 8.77328 18.6066C9.93282 19.9584 11.6186 20.7337 13.3981 20.7337C15.1778 20.7337 16.8635 19.9584 18.023 18.6065C18.2969 18.2873 18.2601 17.8064 17.9408 17.5324Z" fill="white"/>
<path d="M9.16937 14.3999C9.59004 14.3999 9.93109 14.0589 9.93109 13.6382C9.93109 13.394 10.1298 13.1953 10.374 13.1953C10.6182 13.1953 10.8169 13.394 10.8169 13.6382C10.8169 14.0589 11.158 14.3999 11.5786 14.3999C11.9993 14.3999 12.3404 14.0589 12.3404 13.6382C12.3404 12.554 11.4582 11.6719 10.374 11.6719C9.28977 11.6719 8.40765 12.554 8.40765 13.6382C8.40765 14.0589 8.7487 14.3999 9.16937 14.3999Z" fill="white"/>
<path d="M16.4222 11.6719C15.338 11.6719 14.4558 12.554 14.4558 13.6382C14.4558 14.0589 14.7969 14.4 15.2176 14.4C15.6382 14.4 15.9793 14.0589 15.9793 13.6382C15.9793 13.394 16.178 13.1953 16.4222 13.1953C16.6664 13.1953 16.8651 13.394 16.8651 13.6382C16.8651 14.0589 17.2062 14.4 17.6268 14.4C18.0475 14.4 18.3885 14.0589 18.3885 13.6382C18.3885 12.5539 17.5064 11.6719 16.4222 11.6719Z" fill="white"/>
<path d="M19.6737 4.27893H20.7849C21.2056 4.27893 21.5466 3.93788 21.5466 3.51721C21.5466 3.09654 21.2056 2.75549 20.7849 2.75549H19.6737C19.253 2.75549 18.912 3.09654 18.912 3.51721C18.912 3.93788 19.253 4.27893 19.6737 4.27893Z" fill="white"/>
<path d="M22.456 7.03422C22.8767 7.03422 23.2177 6.69317 23.2177 6.2725V5.16125C23.2177 4.74058 22.8767 4.39954 22.456 4.39954C22.0353 4.39954 21.6943 4.74058 21.6943 5.16125V6.2725C21.6943 6.69322 22.0353 7.03422 22.456 7.03422Z" fill="white"/>
<path d="M25.2383 2.75549H24.127C23.7064 2.75549 23.3653 3.09654 23.3653 3.51721C23.3653 3.93788 23.7064 4.27893 24.127 4.27893H25.2383C25.659 4.27893 26 3.93788 26 3.51721C26 3.09654 25.659 2.75549 25.2383 2.75549Z" fill="white"/>
<path d="M22.456 2.63468C22.8767 2.63468 23.2177 2.29364 23.2177 1.87296V0.761719C23.2177 0.341047 22.8767 0 22.456 0C22.0353 0 21.6943 0.341047 21.6943 0.761719V1.87296C21.6943 2.29364 22.0353 2.63468 22.456 2.63468Z" fill="white"/>
<path d="M1.64887 3.77112H0.761719C0.341047 3.77112 0 4.11217 0 4.53284C0 4.95351 0.341047 5.29456 0.761719 5.29456H1.64887C2.06954 5.29456 2.41059 4.95351 2.41059 4.53284C2.41059 4.11217 2.06954 3.77112 1.64887 3.77112Z" fill="white"/>
<path d="M3.99863 6.98639V6.09924C3.99863 5.67857 3.65758 5.33752 3.23691 5.33752C2.81624 5.33752 2.47519 5.67857 2.47519 6.09924V6.98639C2.47519 7.40706 2.81624 7.74811 3.23691 7.74811C3.65758 7.74811 3.99863 7.40706 3.99863 6.98639Z" fill="white"/>
<path d="M4.82488 5.29456H5.71203C6.1327 5.29456 6.47374 4.95351 6.47374 4.53284C6.47374 4.11217 6.1327 3.77112 5.71203 3.77112H4.82488C4.4042 3.77112 4.06316 4.11217 4.06316 4.53284C4.06316 4.95351 4.4042 5.29456 4.82488 5.29456Z" fill="white"/>
<path d="M3.23691 3.72797C3.65758 3.72797 3.99863 3.38692 3.99863 2.96625V2.0791C3.99863 1.65843 3.65758 1.31738 3.23691 1.31738C2.81624 1.31738 2.47519 1.65843 2.47519 2.0791V2.96625C2.47519 3.38692 2.81624 3.72797 3.23691 3.72797Z" fill="white"/>
</g>
<defs>
<clipPath id="clip0_1_113">
<rect width="26" height="26" fill="white"/>
</clipPath>
</defs>
</svg>
