<svg width="58" height="210" viewBox="0 0 58 210" fill="none" xmlns="http://www.w3.org/2000/svg">
<g clip-path="url(#clip0_431_12)">
<path d="M-391.591 -290.605C-445.452 -292.332 -477.316 -255.387 -501.572 -207.267C-545.833 -119.463 -560.967 -14.5058 -546.418 74.8519C-531.868 164.21 -479.047 226.336 -426.364 263.563C-346.508 319.991 -325.59 321.6 -247.5 316.018C-190.503 311.944 -159.808 304.565 -93.8058 270.844C-27.8039 237.123 76.4386 174.113 50.4221 83.5464C29.8276 11.8546 -112.879 -8.68704 -112.879 -8.68704C-112.879 -8.68704 -179.389 -16.2869 -219.359 -47.2512C-260.729 -79.2988 -286.937 -162.963 -286.937 -162.963C-286.937 -162.963 -327.164 -288.54 -391.591 -290.605Z" fill="#08D3BB"/>
</g>
<defs>
<clipPath id="clip0_431_12">
<rect width="58" height="210" fill="white"/>
</clipPath>
</defs>
</svg>
